<?xml version="1.0" encoding="iso-8859-1"?>
<!-- Generator: Adobe Illustrator 19.0.0, SVG Export Plug-In . SVG Version: 6.00 Build 0)  -->
<svg version="1.1" id="Layer_1" xmlns="http://www.w3.org/2000/svg" xmlns:xlink="http://www.w3.org/1999/xlink" x="0px" y="0px"
	 viewBox="0 0 512 512" style="enable-background:new 0 0 512 512;" xml:space="preserve">
<g>
	<g>
		<path d="M83,101.271v405.458l67.634-68.277l52.7,52.7l52.583-52.583l52.75,52.75l52.583-52.583l67.75,67.75V101.271H83z
			 M242.29,296.302c-2.461,4.981-5.701,9.062-9.72,12.24c-4.021,3.181-8.612,5.58-13.77,7.2c-5.161,1.62-10.501,2.61-16.02,2.97
			v21.78h-14.4v-22.14c-8.28-0.72-16.501-2.34-24.66-4.86c-8.162-2.52-15.48-5.698-21.96-9.54l15.12-30.78
			c3.24,2.042,6.719,3.96,10.44,5.76c3.119,1.561,6.75,3.091,10.89,4.59c4.14,1.502,8.37,2.551,12.69,3.15v-15.84
			c-3.721-0.959-7.442-2.099-11.16-3.42c-5.642-1.918-10.502-3.988-14.58-6.21c-4.081-2.219-7.442-4.739-10.08-7.56
			c-2.641-2.818-4.59-6.03-5.85-9.63c-1.26-3.6-1.89-7.74-1.89-12.42c0-6.48,1.08-12.209,3.24-17.19
			c2.16-4.978,5.099-9.27,8.82-12.87c3.718-3.6,8.069-6.48,13.05-8.64c4.978-2.16,10.288-3.538,15.93-4.14v-18.18h14.4v18.36
			c3.96,0.481,7.799,1.201,11.52,2.16c3.718,0.962,7.29,2.07,10.71,3.33s6.629,2.582,9.63,3.96c2.998,1.381,5.76,2.672,8.28,3.87
			l-15.12,28.98c-2.209-1.405-4.597-2.722-7.141-3.96c-0.496-0.242-0.989-0.485-1.498-0.72c-0.66-0.33-1.341-0.654-2.043-0.972
			c-0.701-0.318-1.423-0.631-2.166-0.939c-1.485-0.615-3.052-1.208-4.702-1.779c-1.651-0.569-3.309-1.071-4.974-1.506
			c-1.665-0.435-3.337-0.803-5.016-1.104v16.2c1.08,0.242,2.219,0.571,3.42,0.99c1.198,0.422,2.458,0.81,3.78,1.17
			c5.878,1.8,11.188,3.78,15.93,5.94c4.739,2.16,8.789,4.711,12.15,7.65c3.358,2.942,5.94,6.511,7.74,10.71
			c1.8,4.202,2.7,9.301,2.7,15.3C245.98,285.294,244.748,291.324,242.29,296.302z M372,328.271H269v-30h103V328.271z M372,277.771
			H269v-30h103V277.771z M372,227.271H269v-30h103V227.271z"/>
	</g>
</g>
<g>
	<g>
		<path d="M183.7,225.831c0,1.8,0.599,3.271,1.8,4.41c1.198,1.142,2.998,2.191,5.4,3.15v-13.68
			C186.099,220.313,183.7,222.352,183.7,225.831z"/>
	</g>
</g>
<g>
	<g>
		<path d="M206.02,277.221c-1.44-1.26-3.361-2.368-5.76-3.33v13.32c2.88-0.239,4.919-0.838,6.12-1.8c1.198-0.958,1.8-2.219,1.8-3.78
			C208.18,279.952,207.46,278.481,206.02,277.221z"/>
	</g>
</g>
<g>
	<g>
		<polygon points="0,5.271 0,227.271 53,227.271 53,71.271 459,71.271 459,227.271 512,227.271 512,5.271 		"/>
	</g>
</g>
<g>
</g>
<g>
</g>
<g>
</g>
<g>
</g>
<g>
</g>
<g>
</g>
<g>
</g>
<g>
</g>
<g>
</g>
<g>
</g>
<g>
</g>
<g>
</g>
<g>
</g>
<g>
</g>
<g>
</g>
</svg>
