<?xml version="1.0" encoding="iso-8859-1"?>
<!-- Generator: Adobe Illustrator 19.0.0, SVG Export Plug-In . SVG Version: 6.00 Build 0)  -->
<svg version="1.1" id="Capa_1" xmlns="http://www.w3.org/2000/svg" xmlns:xlink="http://www.w3.org/1999/xlink" x="0px" y="0px"
	 viewBox="0 0 512 512" style="enable-background:new 0 0 512 512;" xml:space="preserve">
<g>
	<g>
		<path d="M512,352l-128-96v64h-48c-70.72,0-128,57.28-128,128l7.68-7.68c36.16-36.16,84.8-56.32,136-56.32H384v64L512,352z"/>
	</g>
</g>
<g>
	<g>
		<path d="M293.408,210.752L353.12,248c2.304-8.832,8.192-16.416,16.576-20.608c10.816-5.408,23.84-4.256,33.504,3.008L416,240
			V129.728L293.408,210.752z"/>
	</g>
</g>
<g>
	<g>
		<path d="M384,64H32C15.776,64,2.88,76.288,0.832,91.936L208,228.8L415.168,91.936C413.12,76.288,400.224,64,384,64z"/>
	</g>
</g>
<g>
	<g>
		<path d="M264.032,230.144l-47.232,31.2c-2.656,1.792-5.728,2.656-8.8,2.656s-6.144-0.864-8.8-2.656l-47.232-31.2L0.896,324.32
			C3.072,339.84,15.872,352,32,352h176.832c29.216-38.624,75.104-64,127.168-64h16v-3.04L264.032,230.144z"/>
	</g>
</g>
<g>
	<g>
		<polygon points="0,129.728 0,287.168 122.592,210.752 		"/>
	</g>
</g>
<g>
</g>
<g>
</g>
<g>
</g>
<g>
</g>
<g>
</g>
<g>
</g>
<g>
</g>
<g>
</g>
<g>
</g>
<g>
</g>
<g>
</g>
<g>
</g>
<g>
</g>
<g>
</g>
<g>
</g>
</svg>
